PathFileType	4	(X/Y/Z)	16_2_26_p1_0-466_filt_butterworth.trc
DataRate	CameraRate	NumFrames	NumMarkers	Units	OrigDataRate	OrigDataStartFrame	OrigNumFrames
59.0	59.0	4	27	m	59.0	0	466
Frame#	Time	RHip			RKnee			RAnkle			RBigToe			RSmallToe			RHeel			LHip			LKnee			LAnkle			LBigToe			LSmallToe			LHeel			Neck			Head			Nose			RShoulder			RElbow			RWrist			RThumb			RIndex			RPinky			LShoulder			LElbow			LWrist			LThumb			LIndex			LPinky			
		X1	Y1	Z1	X2	Y2	Z2	X3	Y3	Z3	X4	Y4	Z4	X5	Y5	Z5	X6	Y6	Z6	X7	Y7	Z7	X8	Y8	Z8	X9	Y9	Z9	X10	Y10	Z10	X11	Y11	Z11	X12	Y12	Z12	X13	Y13	Z13	X14	Y14	Z14	X15	Y15	Z15	X16	Y16	Z16	X17	Y17	Z17	X18	Y18	Z18	X19	Y19	Z19	X20	Y20	Z20	X21	Y21	Z21	X22	Y22	Z22	X23	Y23	Z23	X24	Y24	Z24	X25	Y25	Z25	X26	Y26	Z26	X27	Y27	Z27	
0	0.0	0.29343745347496836	0.49601483288537795	0.5262828634517117	0.28852821461899236	0.6101159134251138	0.9467412482467705	0.24815584586662917	0.7313500715750245	1.373449382614018	0.23182582365779153	0.3880497485221894	1.3409070436324448	0.3033545374401078	0.4497999484590819	1.3629972634667251	0.23274038678025555	0.7909554461990841	1.4209399614567804	0.04779598453542823	0.5192897358977144	0.5313470257469582	0.05387595547952417	0.6160967464166985	0.9481122580357634	0.08858483333329059	0.6885176823506314	1.3683189099684088	0.05233864489316021	0.43365724293607216	1.3535176414298953	-0.0001359268368372628	0.5370207811471444	1.3812312804703188	0.10607105350240961	0.7817292090976851	1.4384182230884575	0.18066001176409185	0.42207683469239915	-0.13882034593112477	0.2194305989756851	0.3379794104296739	-0.3853113619726076	0.19729767580694277	0.28732225769722164	-0.24241826390679275	0.35503249259495306	0.47972194954167713	-0.04587155730578641	0.4582412170283705	0.509076532115271	0.22416596131666947	0.3510087322462053	0.2883304515503221	0.395113110611687	0.2552466197688946	0.16760389927141553	0.44787795368135475	0.2649138851429424	0.1637730602530555	0.4715738618272146	0.29586217685473487	0.16096042734295887	0.48516062931645576	-0.0006077160286764111	0.4543190513400881	-0.05743246763916192	-0.10699505154917649	0.4363602780585607	0.2233208751906992	-0.018062247599479962	0.27487625704447777	0.4612098804720145	0.057595000367186046	0.2256243240836125	0.5363235653532279	0.04022548178984472	0.181687310633797	0.5546750127198249	-0.011385623749176295	0.24772418372587834	0.5712121198708615
1	0.0169491525423728	0.2916965019264906	0.48902704185605084	0.5278134359237788	0.2872620385709428	0.6093135992656353	0.9451581463178681	0.24550780743846543	0.7217913628935048	1.3689528363495458	0.23561140479201326	0.3906713189214046	1.3412410747945414	0.30449991531568416	0.4510927632727431	1.3624308341185003	0.23182098405422863	0.7901918255747994	1.4236011174858536	0.04379632798798467	0.5367895465026082	0.5358423423648774	0.05524844712073217	0.6160448315160209	0.9463080190234842	0.0869299469147747	0.687240631027519	1.3689837511186194	0.05528645223350947	0.42470894324576236	1.3466834718208684	0.00047401647666317156	0.5281171716218414	1.3739272656705697	0.10529973336613412	0.7821694986434309	1.4415422331197465	0.1807160983615672	0.4222663822299686	-0.13850643893004014	0.22219571851389028	0.33937589282061265	-0.3836247873318027	0.19733796429641834	0.30069209760763027	-0.24326911527602288	0.3539218801829413	0.48469285205418633	-0.045795071650161785	0.4537274602192243	0.49691278644561615	0.2229112499090674	0.3356258852032379	0.27715788301799044	0.38831999952475077	0.2277610541577924	0.19812742578272907	0.4408774447946229	0.23900276627566583	0.17078444019423789	0.44954304289436586	0.2709978760420758	0.17041001404983772	0.4715337746865794	-0.0002740767295120371	0.45409986744285136	-0.05750716336592486	-0.10253696432544158	0.4296843468815667	0.2193072636822629	-0.006860463910426507	0.2682015945996929	0.45737276653380043	0.07080442788825575	0.22738772939365326	0.5349236786615756	0.050579481105973954	0.17865734343404233	0.5507779235736394	0.009081891553462717	0.21898991815505017	0.5649011612583162
2	0.0338983050847457	0.2905009786846602	0.4803206429098561	0.5284063452021671	0.28638244608251096	0.6087397786632138	0.944578385825705	0.2438926380529956	0.7160284477204184	1.3662902839927118	0.23759471624589001	0.3921215279186474	1.3414508813959327	0.3051558995740657	0.45180925158015856	1.3620972017615984	0.23057918969631713	0.7872538324214111	1.425054656073587	0.04234448883940832	0.5474021242349938	0.5399434210344514	0.05654600779574494	0.6161224345675913	0.944783369959149	0.08594977237058257	0.6864969082063448	1.3691756749746764	0.057180581290144854	0.4193826487224327	1.3425708228273754	0.001380867622589238	0.5226473435439954	1.369478358178272	0.10490594808222162	0.7825710841208359	1.4436593173010637	0.18077538766854695	0.4224079244926926	-0.13776514192695202	0.22445143369196693	0.3421102730242188	-0.382865081240859	0.19737711936163377	0.308724891158501	-0.24375981494932722	0.35286095992167665	0.48943685806354575	-0.04573766705612084	0.4485934162501395	0.4845133879343683	0.22182833855862724	0.3212191828082545	0.266291168884963	0.3810402009451925	0.20663076044036877	0.22339305226820758	0.4312809686907062	0.21582512118018837	0.18673731059401433	0.4349116503511971	0.2476370286220781	0.18249160269895393	0.4581625263995591	0.00041631664984633263	0.45520644224101164	-0.05755205209130847	-0.09814596289631033	0.4229809744521086	0.21679857218751586	0.007353210649910294	0.26781851266188483	0.4553445824332222	0.08546604496124155	0.23014758311979205	0.5344682793010944	0.06456941709308794	0.17888080263654907	0.5478533001835499	0.030393972382783397	0.19946420363570694	0.5593047581145162
3	0.0508474576271186	0.2895558883875905	0.47200725012327704	0.5290276459993623	0.2859430903790806	0.6085642407108593	0.9456005275920493	0.24339837385271954	0.7144399632003274	1.3660149566682447	0.23750501452146458	0.39204669569561745	1.341413156863752	0.3052459794056957	0.45191555720341287	1.362012434236265	0.22904088727798683	0.7825073258324267	1.425169860755787	0.04388199512240382	0.5492881297728159	0.5438776254437289	0.05744610960021006	0.6162578707568852	0.9439061967833678	0.08595983718154412	0.6868211993890273	1.3689207259432918	0.058256725088015396	0.41795426935521984	1.3413698967885863	0.003152286144083294	0.519802269997175	1.3679040208287245	0.10525918147742208	0.7832311012997718	1.4448273133819145	0.1808060045173323	0.42241869019535316	-0.13672551181729958	0.22607961925590392	0.3460138941054264	-0.3830604319846247	0.1974321768638985	0.3110763591530719	-0.2438571710750514	0.3521302876125639	0.49269540002454537	-0.04570488665716345	0.4427703766688857	0.4716934687934199	0.22122203662340706	0.30869048464668936	0.2578850662791165	0.37346820523118923	0.19228542591253062	0.23923467402495677	0.41681580352467895	0.19542443095555567	0.20807365601736308	0.4259903613376307	0.2263659737150528	0.19872938782128244	0.4474505443275501	0.0014576281028249563	0.45836072260733307	-0.05753334168208989	-0.09286197695115517	0.41389432520140224	0.21606167133704174	0.024087634749364324	0.2711428633994543	0.4540887167513208	0.10051865318864955	0.23218734149184006	0.5321570420503599	0.08337016935868723	0.18002357367159724	0.544504061905719	0.05156942512471119	0.1931200627055	0.5543928413727216
